<svg xmlns="http://www.w3.org/2000/svg" viewBox="0 0 800 360" role="img" aria-label="Reporte diario">
  <defs>
    <linearGradient id="bg" x1="0" x2="1" y1="0" y2="1">
      <stop offset="0" stop-color="#0f172a"/>
      <stop offset="1" stop-color="#0b1220"/>
    </linearGradient>
    <linearGradient id="line" x1="0" x2="1" y1="0" y2="0">
      <stop offset="0" stop-color="#0ea5e9"/>
      <stop offset="1" stop-color="#14b8a6"/>
    </linearGradient>
  </defs>
  <rect width="800" height="360" fill="url(#bg)"/>
  <rect x="36" y="26" width="728" height="308" rx="24" fill="#111a2c" stroke="#1f2b43"/>
  <rect x="64" y="56" width="728" height="56" rx="12" fill="#0b1220" stroke="#22324e"/>
  <text x="92" y="90" fill="#cbd5e1" font-size="18" font-family="Inter, Arial" font-weight="700">Reporte de ventas - Hoy</text>
  <rect x="64" y="126" width="470" height="176" rx="16" fill="#0b1220" stroke="#22324e"/>
  <g stroke="#24344f" stroke-width="1">
    <line x1="90" y1="276" x2="510" y2="276"/>
    <line x1="90" y1="246" x2="510" y2="246"/>
    <line x1="90" y1="216" x2="510" y2="216"/>
    <line x1="90" y1="186" x2="510" y2="186"/>
    <line x1="90" y1="156" x2="510" y2="156"/>
  </g>
  <polyline points="92,254 152,230 212,238 272,204 332,172 392,184 452,150 510,160" fill="none" stroke="url(#line)" stroke-width="5" stroke-linecap="round" stroke-linejoin="round"/>
  <g fill="#0ea5e9">
    <circle cx="92" cy="254" r="5"/><circle cx="152" cy="230" r="5"/><circle cx="212" cy="238" r="5"/>
    <circle cx="272" cy="204" r="5"/><circle cx="332" cy="172" r="5"/><circle cx="392" cy="184" r="5"/>
    <circle cx="452" cy="150" r="5"/><circle cx="510" cy="160" r="5"/>
  </g>
  <rect x="552" y="126" width="212" height="176" rx="16" fill="#0b1220" stroke="#22324e"/>
  <text x="572" y="156" fill="#8fa4bd" font-size="13" font-family="Inter, Arial">Top productos</text>
  <rect x="572" y="170" width="172" height="16" rx="8" fill="#1a2740"/>
  <rect x="572" y="196" width="148" height="16" rx="8" fill="#1a2740"/>
  <rect x="572" y="222" width="132" height="16" rx="8" fill="#1a2740"/>
  <rect x="572" y="248" width="118" height="16" rx="8" fill="#1a2740"/>
</svg>
